<svg width="1377" height="608" viewBox="0 0 1377 608" fill="none" xmlns="http://www.w3.org/2000/svg">
<rect opacity="0.4" x="272" y="329" width="68" height="68" fill="#EBEDF5"/>
<rect opacity="0.4" x="136" y="210" width="68" height="68" transform="rotate(-180 136 210)" fill="#EBEDF5"/>
<rect opacity="0.4" x="709" y="540" width="68" height="68" fill="#EBEDF5"/>
<rect opacity="0.4" x="252" y="540" width="68" height="68" fill="#EBEDF5"/>
<rect opacity="0.4" x="935" y="108" width="68" height="68" fill="#EBEDF5"/>
<rect opacity="0.4" x="867" y="176" width="68" height="68" fill="#EBEDF5"/>
<rect opacity="0.4" x="1309" y="397" width="68" height="68" fill="#EBEDF5"/>
<rect opacity="0.4" x="867" y="176" width="68" height="68" fill="#EBEDF5"/>
<rect opacity="0.4" x="1309" y="533" width="68" height="68" fill="#EBEDF5"/>
<rect opacity="0.4" x="799" y="244" width="68" height="68" fill="#EBEDF5"/>
<rect opacity="0.4" x="1241" y="465" width="68" height="68" fill="#EBEDF5"/>
<rect opacity="0.4" x="731" y="244" width="68" height="68" fill="#EBEDF5"/>
<rect opacity="0.4" x="1173" y="465" width="68" height="68" fill="#EBEDF5"/>
<rect opacity="0.4" x="1139" y="244" width="68" height="68" fill="#EBEDF5"/>
<rect opacity="0.4" x="1207" y="244" width="68" height="68" fill="#EBEDF5"/>
<rect opacity="0.4" x="1003" y="108" width="68" height="68" fill="#EBEDF5"/>
<rect opacity="0.4" x="1071" y="176" width="68" height="68" fill="#EBEDF5"/>
<rect opacity="0.4" x="340" y="329" width="68" height="68" fill="#EBEDF5"/>
<rect opacity="0.4" x="204" y="210" width="68" height="68" transform="rotate(-180 204 210)" fill="#EBEDF5"/>
<rect opacity="0.4" x="777" y="540" width="68" height="68" fill="#EBEDF5"/>
<rect opacity="0.4" x="340" y="261" width="68" height="68" fill="#EBEDF5"/>
<rect opacity="0.4" x="68" y="278" width="68" height="68" transform="rotate(-180 68 278)" fill="#EBEDF5"/>
<rect opacity="0.4" x="777" y="472" width="68" height="68" fill="#EBEDF5"/>
<rect opacity="0.4" x="408" y="261" width="68" height="68" fill="#EBEDF5"/>
<rect opacity="0.4" x="530" y="472" width="68" height="68" fill="#EBEDF5"/>
<rect opacity="0.4" x="462" y="404" width="68" height="68" fill="#EBEDF5"/>
<rect opacity="0.4" x="136" y="278" width="68" height="68" transform="rotate(-180 136 278)" fill="#EBEDF5"/>
<rect opacity="0.4" x="845" y="472" width="68" height="68" fill="#EBEDF5"/>
<rect opacity="0.4" x="845" y="404" width="68" height="68" fill="#EBEDF5"/>
<rect opacity="0.4" x="522" width="68" height="68" fill="#EBEDF5"/>
<rect opacity="0.4" x="454" y="68" width="68" height="68" fill="#EBEDF5"/>
<rect opacity="0.4" x="590" y="68" width="68" height="68" fill="#EBEDF5"/>
<rect opacity="0.4" x="709" width="68" height="68" fill="#EBEDF5"/>
<rect opacity="0.4" x="522" y="136" width="68" height="68" fill="#EBEDF5"/>
<rect opacity="0.4" x="913" y="404" width="68" height="68" fill="#EBEDF5"/>
</svg>
